<?xml version="1.0" encoding="utf-8"?>
<!-- Generator: Adobe Illustrator 16.0.0, SVG Export Plug-In . SVG Version: 6.00 Build 0)  -->
<!DOCTYPE svg PUBLIC "-//W3C//DTD SVG 1.1//EN" "http://www.w3.org/Graphics/SVG/1.1/DTD/svg11.dtd">
<svg version="1.1"
	 id="svg2" xmlns:dc="http://purl.org/dc/elements/1.1/" xmlns:cc="http://creativecommons.org/ns#" xmlns:rdf="http://www.w3.org/1999/02/22-rdf-syntax-ns#" xmlns:svg="http://www.w3.org/2000/svg" xmlns:sodipodi="http://sodipodi.sourceforge.net/DTD/sodipodi-0.dtd" xmlns:inkscape="http://www.inkscape.org/namespaces/inkscape" inkscape:export-ydpi="152.02286" inkscape:export-xdpi="152.02286" inkscape:export-filename="D:\Documents and Settings\Joanna\My Documents\My Pictures\graph_vector\papapishu_wizard_1.png" inkscape:output_extension="org.inkscape.output.svg.inkscape" sodipodi:docname="papapishu_Wizard_in_blue_hat.svg" inkscape:version="0.46" sodipodi:docbase="D:\Documents and Settings\Joanna\My Documents\My Pictures\graph_vector" sodipodi:version="0.32"
	 xmlns="http://www.w3.org/2000/svg" xmlns:xlink="http://www.w3.org/1999/xlink" x="0px" y="0px" width="205.61px"
	 height="193.896px" viewBox="0 0 205.61 193.896" enable-background="new 0 0 205.61 193.896" xml:space="preserve">
<sodipodi:namedview  showgrid="false" inkscape:cy="84.461517" inkscape:cx="116.81485" inkscape:zoom="1.9049386" objecttolerance="10" guidetolerance="10" gridtolerance="10000" borderopacity="1.0" bordercolor="#666666" pagecolor="#ffffff" id="base" inkscape:window-y="25" inkscape:window-x="0" inkscape:window-height="821" inkscape:window-width="1280" inkscape:current-layer="layer1" inkscape:document-units="px" inkscape:pageshadow="2" inkscape:pageopacity="0.0">
	</sodipodi:namedview>
<path id="path2183" sodipodi:nodetypes="csscccc" fill="#006699" d="M41.282,160.723c0,0,35.104-116.667,68.343-150.35
	c13.836-14.02,30.889-9.118,35.68-5.556c13.866,10.311,18.972,25.174,26.486,37.738c-22.012-5.322-14.626-15.61-38.861-13.485
	l14.391,132.229L41.282,160.723z"/>
<path id="path2185" sodipodi:nodetypes="ccccc" d="M39.957,166.699l10.553-35.529c15.702-5.653,49.492-5.343,93.583,5.81
	l4.299,34.049L39.957,166.699z"/>
<path id="path1308" sodipodi:nodetypes="csscszsz" fill="#006699" d="M39.938,178.542c31.031,3.143,68.81-1.898,117.904,1.371
	c13.509,0.899,30.69,1.033,44.025-9.14c2.379-1.814,6.285-7.036-4.051-8.679c-2.879-1.044-2.867,5.28-29.225,1.919
	c-34.215-4.364-68.592-16.234-98.086-18.641c-29.494-2.405-54.353-2.551-66.174,10.965C-6.194,168.373,8.907,175.399,39.938,178.542
	z"/>
<path id="path2237" sodipodi:nodetypes="ccccccccccc" fill="#003444" d="M38.444,150.556c-9.673,0.34-19.659,0.63-28.765,4.775
	c-3.308,1.404-5.834,4.476-7.164,8.28c-1.996,4.313-1.608,10.123,1.552,13.552c5.52,6.28,13.301,8.484,20.521,10.603
	c23.705,6.322,48.228,4.413,72.342,3.721c21.034-0.786,42.112-0.633,63.094,1.409c26.258-1.113,36.127-6.748,42.592-22.553
	c-17.111,6.209-19.271,10.507-50.754,4.344c-25.623-6.45-50.307-17.844-76.366-21.801C63.217,151.335,50.814,150.386,38.444,150.556
	z"/>
<path id="path5447" sodipodi:nodetypes="csc" fill="none" d="M133.122,29.708c-1.236-3.425-2.697-6.895-1.354-8.75
	c1.752-2.419,5.967-3.406,4.041,2.973"/>
</svg>
